<mxfile modified="2020-04-25T23:18:44.645Z" host="app.diagrams.net" agent="5.0 (Windows)" etag="kDfg-wR19XUZ3ZcAItVm" version="13.0.1" type="github">
  <diagram id="f106602c-feb2-e66a-4537-3a34d633f6aa" name="Page-1">
    <mxGraphModel dx="2842" dy="931" grid="1" gridSize="10" guides="1" tooltips="1" connect="1" arrows="1" fold="1" page="1" pageScale="1" pageWidth="1169" pageHeight="827" background="#ffffff" math="0" shadow="0">
      <root>
        <mxCell id="0" />
        <mxCell id="1" parent="0" />
        <mxCell id="d8N_bVIAyNwwRNF8tKG2-725" value="" style="strokeColor=#dddddd;shadow=1;strokeWidth=1;rounded=1;absoluteArcSize=1;arcSize=2;" parent="1" vertex="1">
          <mxGeometry x="680" y="90" width="180" height="60" as="geometry" />
        </mxCell>
        <mxCell id="d8N_bVIAyNwwRNF8tKG2-726" value="&lt;font color=&quot;#000000&quot;&gt;Flask App&lt;/font&gt;&lt;br&gt;Main Application" style="dashed=0;connectable=0;html=1;fillColor=#5184F3;strokeColor=none;shape=mxgraph.gcp2.hexIcon;prIcon=compute_engine;part=1;labelPosition=right;verticalLabelPosition=middle;align=left;verticalAlign=middle;spacingLeft=5;fontColor=#999999;fontSize=12;" parent="d8N_bVIAyNwwRNF8tKG2-725" vertex="1">
          <mxGeometry y="0.5" width="44" height="39" relative="1" as="geometry">
            <mxPoint x="5" y="-19.5" as="offset" />
          </mxGeometry>
        </mxCell>
        <mxCell id="d8N_bVIAyNwwRNF8tKG2-732" value="" style="edgeStyle=orthogonalEdgeStyle;rounded=0;orthogonalLoop=1;jettySize=auto;html=1;anchorPointDirection=1;startArrow=classic;startFill=1;" parent="1" source="d8N_bVIAyNwwRNF8tKG2-727" target="d8N_bVIAyNwwRNF8tKG2-730" edge="1">
          <mxGeometry relative="1" as="geometry" />
        </mxCell>
        <mxCell id="d8N_bVIAyNwwRNF8tKG2-727" value="" style="strokeColor=#dddddd;shadow=1;strokeWidth=1;rounded=1;absoluteArcSize=1;arcSize=2;" parent="1" vertex="1">
          <mxGeometry x="966" y="90" width="180" height="60" as="geometry" />
        </mxCell>
        <mxCell id="d8N_bVIAyNwwRNF8tKG2-728" value="&lt;font color=&quot;#000000&quot;&gt;uWSGI&lt;/font&gt;&lt;br&gt;Application Server" style="dashed=0;connectable=0;html=1;fillColor=#5184F3;strokeColor=none;shape=mxgraph.gcp2.hexIcon;prIcon=compute_engine;part=1;labelPosition=right;verticalLabelPosition=middle;align=left;verticalAlign=middle;spacingLeft=5;fontColor=#999999;fontSize=12;" parent="d8N_bVIAyNwwRNF8tKG2-727" vertex="1">
          <mxGeometry y="0.5" width="44" height="39" relative="1" as="geometry">
            <mxPoint x="5" y="-19.5" as="offset" />
          </mxGeometry>
        </mxCell>
        <mxCell id="d8N_bVIAyNwwRNF8tKG2-730" value="" style="strokeColor=#dddddd;shadow=1;strokeWidth=1;rounded=1;absoluteArcSize=1;arcSize=2;" parent="1" vertex="1">
          <mxGeometry x="1226" y="90" width="180" height="60" as="geometry" />
        </mxCell>
        <mxCell id="d8N_bVIAyNwwRNF8tKG2-731" value="&lt;font color=&quot;#000000&quot;&gt;nginx&lt;/font&gt;&lt;br&gt;Web Server" style="dashed=0;connectable=0;html=1;fillColor=#5184F3;strokeColor=none;shape=mxgraph.gcp2.hexIcon;prIcon=compute_engine;part=1;labelPosition=right;verticalLabelPosition=middle;align=left;verticalAlign=middle;spacingLeft=5;fontColor=#999999;fontSize=12;" parent="d8N_bVIAyNwwRNF8tKG2-730" vertex="1">
          <mxGeometry y="0.5" width="44" height="39" relative="1" as="geometry">
            <mxPoint x="5" y="-19.5" as="offset" />
          </mxGeometry>
        </mxCell>
        <mxCell id="d8N_bVIAyNwwRNF8tKG2-739" style="edgeStyle=orthogonalEdgeStyle;rounded=0;orthogonalLoop=1;jettySize=auto;html=1;exitX=0.5;exitY=1;exitDx=0;exitDy=0;startArrow=classic;startFill=1;entryX=0.5;entryY=0.16;entryDx=0;entryDy=0;entryPerimeter=0;" parent="1" source="d8N_bVIAyNwwRNF8tKG2-733" target="d8N_bVIAyNwwRNF8tKG2-738" edge="1">
          <mxGeometry relative="1" as="geometry" />
        </mxCell>
        <mxCell id="d8N_bVIAyNwwRNF8tKG2-746" value="" style="edgeStyle=orthogonalEdgeStyle;rounded=0;orthogonalLoop=1;jettySize=auto;html=1;startArrow=classic;startFill=1;" parent="1" source="d8N_bVIAyNwwRNF8tKG2-733" target="d8N_bVIAyNwwRNF8tKG2-744" edge="1">
          <mxGeometry relative="1" as="geometry" />
        </mxCell>
        <mxCell id="d8N_bVIAyNwwRNF8tKG2-780" value="" style="edgeStyle=orthogonalEdgeStyle;rounded=0;orthogonalLoop=1;jettySize=auto;html=1;startArrow=none;startFill=0;endArrow=classic;endFill=1;exitX=0.5;exitY=0;exitDx=0;exitDy=0;" parent="1" source="d8N_bVIAyNwwRNF8tKG2-744" target="d8N_bVIAyNwwRNF8tKG2-767" edge="1">
          <mxGeometry relative="1" as="geometry" />
        </mxCell>
        <mxCell id="-2vb09i5TiQDNK01_YHX-19" style="edgeStyle=orthogonalEdgeStyle;rounded=0;orthogonalLoop=1;jettySize=auto;html=1;exitX=0;exitY=0.5;exitDx=0;exitDy=0;entryX=0.5;entryY=1;entryDx=0;entryDy=0;startArrow=none;startFill=0;endArrow=classic;endFill=1;" edge="1" parent="1" source="d8N_bVIAyNwwRNF8tKG2-733" target="-2vb09i5TiQDNK01_YHX-17">
          <mxGeometry relative="1" as="geometry" />
        </mxCell>
        <mxCell id="d8N_bVIAyNwwRNF8tKG2-733" value="" style="strokeColor=#dddddd;shadow=1;strokeWidth=1;rounded=1;absoluteArcSize=1;arcSize=2;" parent="1" vertex="1">
          <mxGeometry x="24" y="340" width="180" height="60" as="geometry" />
        </mxCell>
        <mxCell id="d8N_bVIAyNwwRNF8tKG2-734" value="&lt;font color=&quot;#000000&quot;&gt;Pitch Side App&lt;/font&gt;&lt;br&gt;Main Application" style="dashed=0;connectable=0;html=1;fillColor=#5184F3;strokeColor=none;shape=mxgraph.gcp2.hexIcon;prIcon=compute_engine;part=1;labelPosition=right;verticalLabelPosition=middle;align=left;verticalAlign=middle;spacingLeft=5;fontColor=#999999;fontSize=12;" parent="d8N_bVIAyNwwRNF8tKG2-733" vertex="1">
          <mxGeometry y="0.5" width="44" height="39" relative="1" as="geometry">
            <mxPoint x="5" y="-19.5" as="offset" />
          </mxGeometry>
        </mxCell>
        <mxCell id="d8N_bVIAyNwwRNF8tKG2-782" style="edgeStyle=orthogonalEdgeStyle;rounded=0;orthogonalLoop=1;jettySize=auto;html=1;exitX=1;exitY=0.5;exitDx=0;exitDy=0;entryX=1;entryY=0.75;entryDx=0;entryDy=0;startArrow=none;startFill=0;endArrow=classic;endFill=1;" parent="1" source="d8N_bVIAyNwwRNF8tKG2-767" target="d8N_bVIAyNwwRNF8tKG2-730" edge="1">
          <mxGeometry relative="1" as="geometry">
            <Array as="points">
              <mxPoint x="1430" y="250" />
              <mxPoint x="1430" y="135" />
            </Array>
          </mxGeometry>
        </mxCell>
        <mxCell id="d8N_bVIAyNwwRNF8tKG2-767" value="" style="strokeColor=#dddddd;shadow=1;strokeWidth=1;rounded=1;absoluteArcSize=1;arcSize=2;" parent="1" vertex="1">
          <mxGeometry x="9" y="220" width="210" height="60" as="geometry" />
        </mxCell>
        <mxCell id="d8N_bVIAyNwwRNF8tKG2-768" value="&lt;font color=&quot;#000000&quot;&gt;Match Data Processing App&lt;/font&gt;&lt;br&gt;Real-time calculations" style="dashed=0;connectable=0;html=1;fillColor=#5184F3;strokeColor=none;shape=mxgraph.gcp2.hexIcon;prIcon=compute_engine;part=1;labelPosition=right;verticalLabelPosition=middle;align=left;verticalAlign=middle;spacingLeft=5;fontColor=#999999;fontSize=12;" parent="d8N_bVIAyNwwRNF8tKG2-767" vertex="1">
          <mxGeometry y="0.5" width="44" height="39" relative="1" as="geometry">
            <mxPoint x="5" y="-19.5" as="offset" />
          </mxGeometry>
        </mxCell>
        <mxCell id="d8N_bVIAyNwwRNF8tKG2-744" value="" style="strokeColor=#dddddd;shadow=1;strokeWidth=1;rounded=1;absoluteArcSize=1;arcSize=2;" parent="1" vertex="1">
          <mxGeometry x="269" y="340" width="180" height="60" as="geometry" />
        </mxCell>
        <mxCell id="d8N_bVIAyNwwRNF8tKG2-745" value="&lt;font color=&quot;#000000&quot;&gt;MQTT Server&lt;/font&gt;&lt;br&gt;" style="dashed=0;connectable=0;html=1;fillColor=#5184F3;strokeColor=none;shape=mxgraph.gcp2.hexIcon;prIcon=compute_engine;part=1;labelPosition=right;verticalLabelPosition=middle;align=left;verticalAlign=middle;spacingLeft=5;fontColor=#999999;fontSize=12;" parent="d8N_bVIAyNwwRNF8tKG2-744" vertex="1">
          <mxGeometry y="0.5" width="44" height="39" relative="1" as="geometry">
            <mxPoint x="5" y="-19.5" as="offset" />
          </mxGeometry>
        </mxCell>
        <mxCell id="d8N_bVIAyNwwRNF8tKG2-737" value="" style="edgeStyle=orthogonalEdgeStyle;rounded=0;orthogonalLoop=1;jettySize=auto;html=1;startArrow=classic;startFill=1;entryX=0;entryY=0.5;entryDx=0;entryDy=0;exitX=0.825;exitY=0.5;exitDx=0;exitDy=0;exitPerimeter=0;" parent="1" source="d8N_bVIAyNwwRNF8tKG2-735" edge="1" target="d8N_bVIAyNwwRNF8tKG2-725">
          <mxGeometry relative="1" as="geometry">
            <mxPoint x="539" y="140" as="targetPoint" />
            <Array as="points">
              <mxPoint x="590" y="29" />
              <mxPoint x="590" y="120" />
            </Array>
          </mxGeometry>
        </mxCell>
        <mxCell id="d8N_bVIAyNwwRNF8tKG2-771" style="edgeStyle=orthogonalEdgeStyle;rounded=0;orthogonalLoop=1;jettySize=auto;html=1;exitX=0.175;exitY=0.5;exitDx=0;exitDy=0;exitPerimeter=0;entryX=0.5;entryY=0;entryDx=0;entryDy=0;startArrow=classic;startFill=1;endArrow=none;endFill=0;" parent="1" source="d8N_bVIAyNwwRNF8tKG2-735" target="d8N_bVIAyNwwRNF8tKG2-767" edge="1">
          <mxGeometry relative="1" as="geometry" />
        </mxCell>
        <mxCell id="d8N_bVIAyNwwRNF8tKG2-735" value="Cloud&#xa;Datastore" style="html=1;fillColor=#5184F3;strokeColor=none;verticalAlign=top;labelPosition=center;verticalLabelPosition=bottom;align=center;spacingTop=-6;fontSize=11;fontStyle=1;fontColor=#999999;shape=mxgraph.gcp2.hexIcon;prIcon=cloud_datastore" parent="1" vertex="1">
          <mxGeometry x="439" width="66" height="58.5" as="geometry" />
        </mxCell>
        <mxCell id="d8N_bVIAyNwwRNF8tKG2-738" value="Raw Data Db" style="html=1;fillColor=#5184F3;strokeColor=none;verticalAlign=top;labelPosition=center;verticalLabelPosition=bottom;align=center;spacingTop=-6;fontSize=11;fontStyle=1;fontColor=#999999;shape=mxgraph.gcp2.hexIcon;prIcon=cloud_firestore" parent="1" vertex="1">
          <mxGeometry x="81" y="530" width="66" height="58.5" as="geometry" />
        </mxCell>
        <mxCell id="d8N_bVIAyNwwRNF8tKG2-764" style="edgeStyle=orthogonalEdgeStyle;rounded=0;orthogonalLoop=1;jettySize=auto;html=1;exitX=0.5;exitY=0.16;exitDx=0;exitDy=0;exitPerimeter=0;entryX=0.5;entryY=1;entryDx=0;entryDy=0;startArrow=none;startFill=0;" parent="1" source="d8N_bVIAyNwwRNF8tKG2-750" target="d8N_bVIAyNwwRNF8tKG2-744" edge="1">
          <mxGeometry relative="1" as="geometry" />
        </mxCell>
        <mxCell id="d8N_bVIAyNwwRNF8tKG2-750" value="GPS Module" style="html=1;fillColor=#5184F3;strokeColor=none;verticalAlign=top;labelPosition=center;verticalLabelPosition=bottom;align=center;spacingTop=-6;fontSize=11;fontStyle=1;fontColor=#999999;shape=mxgraph.gcp2.hexIcon;prIcon=cloud_pubsub" parent="1" vertex="1">
          <mxGeometry x="326" y="530" width="66" height="58.5" as="geometry" />
        </mxCell>
        <mxCell id="d8N_bVIAyNwwRNF8tKG2-773" value="" style="edgeStyle=orthogonalEdgeStyle;rounded=0;orthogonalLoop=1;jettySize=auto;html=1;anchorPointDirection=1;startArrow=classic;startFill=1;" parent="1" edge="1">
          <mxGeometry relative="1" as="geometry">
            <mxPoint x="1146" y="137" as="sourcePoint" />
            <mxPoint x="1226" y="137" as="targetPoint" />
            <Array as="points">
              <mxPoint x="1206" y="137" />
              <mxPoint x="1206" y="137" />
            </Array>
          </mxGeometry>
        </mxCell>
        <mxCell id="d8N_bVIAyNwwRNF8tKG2-774" value="HTTP" style="text;html=1;align=center;verticalAlign=middle;resizable=0;points=[];autosize=1;" parent="1" vertex="1">
          <mxGeometry x="888" y="98" width="50" height="20" as="geometry" />
        </mxCell>
        <mxCell id="d8N_bVIAyNwwRNF8tKG2-777" value="SocketIO" style="text;html=1;align=center;verticalAlign=middle;resizable=0;points=[];autosize=1;" parent="1" vertex="1">
          <mxGeometry x="883" y="118" width="60" height="20" as="geometry" />
        </mxCell>
        <mxCell id="d8N_bVIAyNwwRNF8tKG2-778" value="SocketIO" style="text;html=1;align=center;verticalAlign=middle;resizable=0;points=[];autosize=1;" parent="1" vertex="1">
          <mxGeometry x="1156" y="120" width="60" height="20" as="geometry" />
        </mxCell>
        <mxCell id="d8N_bVIAyNwwRNF8tKG2-779" value="HTTP" style="text;html=1;align=center;verticalAlign=middle;resizable=0;points=[];autosize=1;" parent="1" vertex="1">
          <mxGeometry x="1161" y="100" width="50" height="20" as="geometry" />
        </mxCell>
        <mxCell id="d8N_bVIAyNwwRNF8tKG2-783" value="Real-time data &amp;lt;= 100msvia SocketIO" style="text;html=1;align=center;verticalAlign=middle;resizable=0;points=[];autosize=1;" parent="1" vertex="1">
          <mxGeometry x="230" y="230" width="220" height="20" as="geometry" />
        </mxCell>
        <mxCell id="d8N_bVIAyNwwRNF8tKG2-784" value="Periodic Data every minute" style="text;html=1;align=center;verticalAlign=middle;resizable=0;points=[];autosize=1;" parent="1" vertex="1">
          <mxGeometry x="180" y="10" width="160" height="20" as="geometry" />
        </mxCell>
        <mxCell id="-2vb09i5TiQDNK01_YHX-4" style="edgeStyle=orthogonalEdgeStyle;rounded=0;orthogonalLoop=1;jettySize=auto;html=1;exitX=1;exitY=0.75;exitDx=0;exitDy=0;entryX=0;entryY=0.75;entryDx=0;entryDy=0;startArrow=classic;startFill=1;" edge="1" parent="1" source="d8N_bVIAyNwwRNF8tKG2-725" target="d8N_bVIAyNwwRNF8tKG2-727">
          <mxGeometry relative="1" as="geometry">
            <Array as="points">
              <mxPoint x="900" y="135" />
              <mxPoint x="900" y="135" />
            </Array>
          </mxGeometry>
        </mxCell>
        <mxCell id="-2vb09i5TiQDNK01_YHX-5" style="edgeStyle=orthogonalEdgeStyle;rounded=0;orthogonalLoop=1;jettySize=auto;html=1;exitX=1;exitY=0.5;exitDx=0;exitDy=0;entryX=0;entryY=0.5;entryDx=0;entryDy=0;startArrow=classic;startFill=1;" edge="1" parent="1">
          <mxGeometry relative="1" as="geometry">
            <mxPoint x="860" y="117" as="sourcePoint" />
            <mxPoint x="966" y="117" as="targetPoint" />
          </mxGeometry>
        </mxCell>
        <mxCell id="-2vb09i5TiQDNK01_YHX-6" style="edgeStyle=orthogonalEdgeStyle;rounded=0;orthogonalLoop=1;jettySize=auto;html=1;exitX=0;exitY=0.5;exitDx=0;exitDy=0;startArrow=classic;startFill=1;endArrow=none;endFill=0;" edge="1" parent="1" source="-2vb09i5TiQDNK01_YHX-2">
          <mxGeometry relative="1" as="geometry">
            <mxPoint x="590" y="30" as="targetPoint" />
          </mxGeometry>
        </mxCell>
        <mxCell id="-2vb09i5TiQDNK01_YHX-2" value="" style="strokeColor=#dddddd;shadow=1;strokeWidth=1;rounded=1;absoluteArcSize=1;arcSize=2;" vertex="1" parent="1">
          <mxGeometry x="680" y="160" width="180" height="60" as="geometry" />
        </mxCell>
        <mxCell id="-2vb09i5TiQDNK01_YHX-3" value="&lt;font color=&quot;#000000&quot;&gt;Dash App&lt;/font&gt;&lt;br&gt;Main Application" style="dashed=0;connectable=0;html=1;fillColor=#5184F3;strokeColor=none;shape=mxgraph.gcp2.hexIcon;prIcon=compute_engine;part=1;labelPosition=right;verticalLabelPosition=middle;align=left;verticalAlign=middle;spacingLeft=5;fontColor=#999999;fontSize=12;" vertex="1" parent="-2vb09i5TiQDNK01_YHX-2">
          <mxGeometry y="0.5" width="44" height="39" relative="1" as="geometry">
            <mxPoint x="5" y="-19.5" as="offset" />
          </mxGeometry>
        </mxCell>
        <mxCell id="-2vb09i5TiQDNK01_YHX-9" value="&lt;div&gt;200 writes/ second,&lt;/div&gt;&lt;div&gt;assuming 20 modules &lt;br&gt;&lt;/div&gt;&lt;div&gt;transmitting @ 10Hz&lt;br&gt;&lt;/div&gt;" style="text;html=1;align=center;verticalAlign=middle;resizable=0;points=[];autosize=1;" vertex="1" parent="1">
          <mxGeometry x="120" y="455" width="140" height="50" as="geometry" />
        </mxCell>
        <mxCell id="-2vb09i5TiQDNK01_YHX-11" value="&lt;div&gt;200 msg/ second,&lt;/div&gt;&lt;div&gt;assuming 20 modules &lt;br&gt;&lt;/div&gt;&lt;div&gt;transmitting @ 10Hz&lt;br&gt;&lt;/div&gt;" style="text;html=1;align=center;verticalAlign=middle;resizable=0;points=[];autosize=1;" vertex="1" parent="1">
          <mxGeometry x="360" y="455" width="140" height="50" as="geometry" />
        </mxCell>
        <mxCell id="-2vb09i5TiQDNK01_YHX-12" value="200Hz" style="text;html=1;align=center;verticalAlign=middle;resizable=0;points=[];autosize=1;" vertex="1" parent="1">
          <mxGeometry x="225" y="290" width="50" height="20" as="geometry" />
        </mxCell>
        <mxCell id="-2vb09i5TiQDNK01_YHX-13" value="200Hz" style="text;html=1;align=center;verticalAlign=middle;resizable=0;points=[];autosize=1;" vertex="1" parent="1">
          <mxGeometry x="490" y="230" width="50" height="20" as="geometry" />
        </mxCell>
        <mxCell id="-2vb09i5TiQDNK01_YHX-17" value="" style="strokeColor=#dddddd;shadow=1;strokeWidth=1;rounded=1;absoluteArcSize=1;arcSize=2;" vertex="1" parent="1">
          <mxGeometry x="-310" y="10" width="150" height="60" as="geometry" />
        </mxCell>
        <mxCell id="-2vb09i5TiQDNK01_YHX-18" value="&lt;font color=&quot;#000000&quot;&gt;Cloud Storage&lt;/font&gt;&lt;br&gt;Cloud Filestore" style="dashed=0;connectable=0;html=1;fillColor=#5184F3;strokeColor=none;shape=mxgraph.gcp2.hexIcon;prIcon=cloud_filestore;part=1;labelPosition=right;verticalLabelPosition=middle;align=left;verticalAlign=middle;spacingLeft=5;fontColor=#999999;fontSize=12;" vertex="1" parent="-2vb09i5TiQDNK01_YHX-17">
          <mxGeometry y="0.5" width="44" height="39" relative="1" as="geometry">
            <mxPoint x="5" y="-19.5" as="offset" />
          </mxGeometry>
        </mxCell>
        <mxCell id="-2vb09i5TiQDNK01_YHX-20" value="Archive of raw data" style="text;html=1;align=center;verticalAlign=middle;resizable=0;points=[];autosize=1;" vertex="1" parent="1">
          <mxGeometry x="-240" y="180" width="120" height="20" as="geometry" />
        </mxCell>
        <mxCell id="-2vb09i5TiQDNK01_YHX-21" value="&lt;div&gt;2 x n number of &lt;br&gt;&lt;/div&gt;&lt;div&gt;concurrent games&lt;/div&gt;&lt;div&gt;every 30 seconds&lt;br&gt;&lt;/div&gt;" style="text;html=1;align=center;verticalAlign=middle;resizable=0;points=[];autosize=1;" vertex="1" parent="1">
          <mxGeometry x="109" y="115" width="120" height="50" as="geometry" />
        </mxCell>
      </root>
    </mxGraphModel>
  </diagram>
</mxfile>
